<?xml version="1.0" encoding="UTF-8"?>
<svg viewBox="0 0 706 167" version="1.1" xmlns="http://www.w3.org/2000/svg" xmlns:xlink="http://www.w3.org/1999/xlink">
    <!-- Generator: Sketch 57.1 (83088) - https://sketch.com -->
    <title>build_solutions_1</title>
    <desc>Created with Sketch.</desc>
    <defs>
        <linearGradient x1="49.9957895%" y1="0.0119794638%" x2="49.9957895%" y2="99.9908728%" id="linearGradient-1">
            <stop stop-color="#FBC5A0" offset="21.59%"></stop>
            <stop stop-color="#FBC19D" offset="32.97%"></stop>
            <stop stop-color="#FAB695" offset="43.73%"></stop>
            <stop stop-color="#F8A387" offset="54.26%"></stop>
            <stop stop-color="#F68873" offset="64.63%"></stop>
            <stop stop-color="#F2655A" offset="74.89%"></stop>
            <stop stop-color="#EF3B3B" offset="84.93%"></stop>
            <stop stop-color="#EC1C24" offset="91.47%"></stop>
        </linearGradient>
        <linearGradient x1="49.9942651%" y1="100.001656%" x2="49.9942651%" y2="-0.00314569536%" id="linearGradient-2">
            <stop stop-color="#68101B" offset="0%"></stop>
            <stop stop-color="#8E1F27" offset="2.81%"></stop>
            <stop stop-color="#B02C32" offset="5.91%"></stop>
            <stop stop-color="#CB373A" offset="9.07%"></stop>
            <stop stop-color="#DE3E40" offset="12.28%"></stop>
            <stop stop-color="#E94344" offset="15.56%"></stop>
            <stop stop-color="#ED4445" offset="19.05%"></stop>
            <stop stop-color="#E54143" offset="25.55%"></stop>
            <stop stop-color="#CF393E" offset="35.67%"></stop>
            <stop stop-color="#AB2C35" offset="48.07%"></stop>
            <stop stop-color="#861F2C" offset="58.97%"></stop>
            <stop stop-color="#891F2C" offset="64.23%"></stop>
            <stop stop-color="#931F2B" offset="68.21%"></stop>
            <stop stop-color="#A31E2A" offset="71.76%"></stop>
            <stop stop-color="#BA1D28" offset="75.07%"></stop>
            <stop stop-color="#D71D26" offset="78.18%"></stop>
            <stop stop-color="#EC1C24" offset="80%"></stop>
        </linearGradient>
        <linearGradient x1="50.0005734%" y1="99.9940003%" x2="50.0005734%" y2="-0.00572066416%" id="linearGradient-3">
            <stop stop-color="#68101B" offset="0%"></stop>
            <stop stop-color="#70131E" offset="1.94%"></stop>
            <stop stop-color="#861C24" offset="4.96%"></stop>
            <stop stop-color="#AA2A30" offset="8.68%"></stop>
            <stop stop-color="#DB3D3F" offset="12.91%"></stop>
            <stop stop-color="#ED4445" offset="14.28%"></stop>
            <stop stop-color="#E94244" offset="19.2%"></stop>
            <stop stop-color="#DC3E41" offset="24.52%"></stop>
            <stop stop-color="#C6363C" offset="30.02%"></stop>
            <stop stop-color="#A82B36" offset="35.62%"></stop>
            <stop stop-color="#8A202F" offset="40.15%"></stop>
            <stop stop-color="#8D202F" offset="45.7%"></stop>
            <stop stop-color="#95202E" offset="49.07%"></stop>
            <stop stop-color="#A31F2C" offset="51.85%"></stop>
            <stop stop-color="#B81E2A" offset="54.32%"></stop>
            <stop stop-color="#D21D27" offset="56.55%"></stop>
            <stop stop-color="#EC1C24" offset="58.3%"></stop>
            <stop stop-color="#EC2027" offset="63.26%"></stop>
            <stop stop-color="#ED2B2F" offset="67.8%"></stop>
            <stop stop-color="#EF3D3C" offset="72.17%"></stop>
            <stop stop-color="#F15850" offset="76.45%"></stop>
            <stop stop-color="#F47968" offset="80.65%"></stop>
            <stop stop-color="#F8A286" offset="84.75%"></stop>
            <stop stop-color="#FBC5A0" offset="87.76%"></stop>
        </linearGradient>
        <linearGradient x1="50.0035088%" y1="0.0176839703%" x2="50.0035088%" y2="99.9965773%" id="linearGradient-4">
            <stop stop-color="#FBC5A0" offset="21.59%"></stop>
            <stop stop-color="#FBC19D" offset="32.97%"></stop>
            <stop stop-color="#FAB695" offset="43.73%"></stop>
            <stop stop-color="#F8A387" offset="54.26%"></stop>
            <stop stop-color="#F68873" offset="64.63%"></stop>
            <stop stop-color="#F2655A" offset="74.89%"></stop>
            <stop stop-color="#EF3B3B" offset="84.93%"></stop>
            <stop stop-color="#EC1C24" offset="91.47%"></stop>
        </linearGradient>
        <linearGradient x1="50.0031132%" y1="100.003311%" x2="50.0031132%" y2="-0.00165562914%" id="linearGradient-5">
            <stop stop-color="#68101B" offset="0%"></stop>
            <stop stop-color="#8E1F27" offset="2.81%"></stop>
            <stop stop-color="#B02C32" offset="5.91%"></stop>
            <stop stop-color="#CB373A" offset="9.07%"></stop>
            <stop stop-color="#DE3E40" offset="12.28%"></stop>
            <stop stop-color="#E94344" offset="15.56%"></stop>
            <stop stop-color="#ED4445" offset="19.05%"></stop>
            <stop stop-color="#E54143" offset="25.55%"></stop>
            <stop stop-color="#CF393E" offset="35.67%"></stop>
            <stop stop-color="#AB2C35" offset="48.07%"></stop>
            <stop stop-color="#861F2C" offset="58.97%"></stop>
            <stop stop-color="#891F2C" offset="64.23%"></stop>
            <stop stop-color="#931F2B" offset="68.21%"></stop>
            <stop stop-color="#A31E2A" offset="71.76%"></stop>
            <stop stop-color="#BA1D28" offset="75.07%"></stop>
            <stop stop-color="#D71D26" offset="78.18%"></stop>
            <stop stop-color="#EC1C24" offset="80%"></stop>
        </linearGradient>
        <linearGradient x1="50.0034423%" y1="99.9953956%" x2="50.0034423%" y2="-0.00432538021%" id="linearGradient-6">
            <stop stop-color="#68101B" offset="0%"></stop>
            <stop stop-color="#70131E" offset="1.94%"></stop>
            <stop stop-color="#861C24" offset="4.96%"></stop>
            <stop stop-color="#AA2A30" offset="8.68%"></stop>
            <stop stop-color="#DB3D3F" offset="12.91%"></stop>
            <stop stop-color="#ED4445" offset="14.28%"></stop>
            <stop stop-color="#E94244" offset="19.2%"></stop>
            <stop stop-color="#DC3E41" offset="24.52%"></stop>
            <stop stop-color="#C6363C" offset="30.02%"></stop>
            <stop stop-color="#A82B36" offset="35.62%"></stop>
            <stop stop-color="#8A202F" offset="40.15%"></stop>
            <stop stop-color="#8D202F" offset="45.7%"></stop>
            <stop stop-color="#95202E" offset="49.07%"></stop>
            <stop stop-color="#A31F2C" offset="51.85%"></stop>
            <stop stop-color="#B81E2A" offset="54.32%"></stop>
            <stop stop-color="#D21D27" offset="56.55%"></stop>
            <stop stop-color="#EC1C24" offset="58.3%"></stop>
            <stop stop-color="#EC2027" offset="63.26%"></stop>
            <stop stop-color="#ED2B2F" offset="67.8%"></stop>
            <stop stop-color="#EF3D3C" offset="72.17%"></stop>
            <stop stop-color="#F15850" offset="76.45%"></stop>
            <stop stop-color="#F47968" offset="80.65%"></stop>
            <stop stop-color="#F8A286" offset="84.75%"></stop>
            <stop stop-color="#FBC5A0" offset="87.76%"></stop>
        </linearGradient>
        <linearGradient x1="49.9981752%" y1="0.00114090131%" x2="49.9981752%" y2="99.9800342%" id="linearGradient-7">
            <stop stop-color="#FBC5A0" offset="21.59%"></stop>
            <stop stop-color="#FBC19D" offset="32.97%"></stop>
            <stop stop-color="#FAB695" offset="43.73%"></stop>
            <stop stop-color="#F8A387" offset="54.26%"></stop>
            <stop stop-color="#F68873" offset="64.63%"></stop>
            <stop stop-color="#F2655A" offset="74.89%"></stop>
            <stop stop-color="#EF3B3B" offset="84.93%"></stop>
            <stop stop-color="#EC1C24" offset="91.47%"></stop>
        </linearGradient>
        <linearGradient x1="50.0052433%" y1="99.9985099%" x2="50.0052433%" y2="-0.00645695364%" id="linearGradient-8">
            <stop stop-color="#68101B" offset="0%"></stop>
            <stop stop-color="#8E1F27" offset="2.81%"></stop>
            <stop stop-color="#B02C32" offset="5.91%"></stop>
            <stop stop-color="#CB373A" offset="9.07%"></stop>
            <stop stop-color="#DE3E40" offset="12.28%"></stop>
            <stop stop-color="#E94344" offset="15.56%"></stop>
            <stop stop-color="#ED4445" offset="19.05%"></stop>
            <stop stop-color="#E54143" offset="25.55%"></stop>
            <stop stop-color="#CF393E" offset="35.67%"></stop>
            <stop stop-color="#AB2C35" offset="48.07%"></stop>
            <stop stop-color="#861F2C" offset="58.97%"></stop>
            <stop stop-color="#891F2C" offset="64.23%"></stop>
            <stop stop-color="#931F2B" offset="68.21%"></stop>
            <stop stop-color="#A31E2A" offset="71.76%"></stop>
            <stop stop-color="#BA1D28" offset="75.07%"></stop>
            <stop stop-color="#D71D26" offset="78.18%"></stop>
            <stop stop-color="#EC1C24" offset="80%"></stop>
        </linearGradient>
        <linearGradient x1="50.0109007%" y1="100.005302%" x2="50.0109007%" y2="0.00558113576%" id="linearGradient-9">
            <stop stop-color="#68101B" offset="0%"></stop>
            <stop stop-color="#70131E" offset="1.94%"></stop>
            <stop stop-color="#861C24" offset="4.96%"></stop>
            <stop stop-color="#AA2A30" offset="8.68%"></stop>
            <stop stop-color="#DB3D3F" offset="12.91%"></stop>
            <stop stop-color="#ED4445" offset="14.28%"></stop>
            <stop stop-color="#E94244" offset="19.2%"></stop>
            <stop stop-color="#DC3E41" offset="24.52%"></stop>
            <stop stop-color="#C6363C" offset="30.02%"></stop>
            <stop stop-color="#A82B36" offset="35.62%"></stop>
            <stop stop-color="#8A202F" offset="40.15%"></stop>
            <stop stop-color="#8D202F" offset="45.7%"></stop>
            <stop stop-color="#95202E" offset="49.07%"></stop>
            <stop stop-color="#A31F2C" offset="51.85%"></stop>
            <stop stop-color="#B81E2A" offset="54.32%"></stop>
            <stop stop-color="#D21D27" offset="56.55%"></stop>
            <stop stop-color="#EC1C24" offset="58.3%"></stop>
            <stop stop-color="#EC2027" offset="63.26%"></stop>
            <stop stop-color="#ED2B2F" offset="67.8%"></stop>
            <stop stop-color="#EF3D3C" offset="72.17%"></stop>
            <stop stop-color="#F15850" offset="76.45%"></stop>
            <stop stop-color="#F47968" offset="80.65%"></stop>
            <stop stop-color="#F8A286" offset="84.75%"></stop>
            <stop stop-color="#FBC5A0" offset="87.76%"></stop>
        </linearGradient>
    </defs>
    <g id="Page-1" stroke="none" stroke-width="1" fill="none" fill-rule="evenodd">
        <g id="build_solutions_1" transform="translate(0.000000, 0.500000)">
            <text id="Soluções-em-Tecnologia-da-Informação" fill="#000000" font-family="Helvetica" font-size="26.6" font-weight="normal">
                <tspan x="48.3361" y="158.1931">Soluções em Tecnologia da Informação</tspan>
            </text>
            <g id="build_solutions" transform="translate(0.000000, 65.500000)" fill="#000000" fill-rule="nonzero">
                <path d="M218.78,62.58 C215.95,62.58 212.99,62.28 210.01,61.69 C207.01,61.1 204.22,60.19 201.72,59 L201.04,58.68 L203.06,50.49 L204.08,50.96 C206.17,51.92 208.5,52.72 211.02,53.34 C213.52,53.96 216.07,54.27 218.61,54.27 C222.18,54.27 225.09,53.52 227.25,52.03 C229.33,50.6 230.34,48.58 230.34,45.86 C230.34,44.34 230.04,43.04 229.46,41.99 C228.85,40.9 228,39.9 226.93,39.02 C225.83,38.11 224.53,37.29 223.05,36.56 C221.51,35.81 219.88,35.03 218.14,34.21 C216.17,33.28 214.23,32.29 212.37,31.26 C210.48,30.21 208.79,28.99 207.34,27.63 C205.87,26.25 204.67,24.67 203.79,22.93 C202.88,21.15 202.42,19.06 202.42,16.71 C202.42,14.08 202.9,11.72 203.86,9.68 C204.82,7.64 206.19,5.91 207.92,4.55 C209.63,3.2 211.71,2.18 214.09,1.51 C218.81,0.18 224.84,0.2 230.22,1.5 C232.93,2.16 235.34,3.04 237.37,4.11 L238,4.44 L236.08,12.68 L235.01,12.12 C233.22,11.17 231.14,10.37 228.83,9.75 C226.53,9.13 224.18,8.82 221.83,8.82 C215.35,8.82 212.2,11.2 212.2,16.09 C212.2,17.19 212.35,18.15 212.66,18.94 C212.96,19.72 213.46,20.46 214.15,21.15 C214.87,21.87 215.86,22.58 217.09,23.26 C218.39,23.98 219.96,24.8 221.81,25.73 C223.67,26.66 225.66,27.67 227.75,28.74 C229.9,29.84 231.9,31.18 233.69,32.7 C235.5,34.24 237.04,36.06 238.25,38.13 C239.49,40.25 240.12,42.72 240.12,45.5 C240.12,48.15 239.54,50.56 238.39,52.66 C237.26,54.74 235.7,56.55 233.77,58.02 C231.86,59.48 229.59,60.61 227.02,61.4 C224.48,62.19 221.7,62.58 218.78,62.58 Z" id="Path"></path>
                <path d="M282.15,39.67 C282.15,42.76 281.71,45.68 280.82,48.41 C279.93,51.14 278.64,53.55 276.93,55.65 C275.22,57.74 273.12,59.4 270.64,60.61 C268.16,61.82 265.35,62.43 262.21,62.43 C259.01,62.43 256.19,61.82 253.74,60.61 C251.29,59.4 249.21,57.74 247.49,55.65 C245.78,53.56 244.48,51.15 243.6,48.41 C242.72,45.68 242.27,42.77 242.27,39.67 C242.27,36.58 242.71,33.66 243.6,30.93 C244.48,28.2 245.78,25.79 247.49,23.69 C249.2,21.6 251.28,19.94 253.74,18.73 C256.19,17.52 259.01,16.91 262.21,16.91 C265.35,16.91 268.16,17.52 270.64,18.73 C273.12,19.94 275.22,21.6 276.93,23.69 C278.64,25.78 279.94,28.19 280.82,30.93 C281.71,33.66 282.15,36.57 282.15,39.67 Z M272.97,39.67 C272.97,37.52 272.75,35.48 272.3,33.56 C271.85,31.64 271.19,29.97 270.33,28.54 C269.46,27.11 268.36,25.99 267.02,25.18 C265.68,24.37 264.12,23.96 262.33,23.96 C260.54,23.96 258.98,24.37 257.64,25.18 C256.3,25.99 255.19,27.11 254.33,28.54 C253.46,29.97 252.8,31.64 252.36,33.56 C251.91,35.48 251.69,37.52 251.69,39.67 C251.69,41.88 251.91,43.93 252.36,45.82 C252.81,47.71 253.46,49.37 254.33,50.79 C255.2,52.22 256.3,53.34 257.64,54.15 C258.98,54.97 260.54,55.37 262.33,55.37 C264.12,55.37 265.68,54.96 267.02,54.15 C268.36,53.34 269.47,52.22 270.33,50.79 C271.2,49.37 271.86,47.71 272.3,45.82 C272.75,43.93 272.97,41.88 272.97,39.67 Z" id="Shape"></path>
                <path d="M327.45,62 C324.96,62 322.16,61.44 320.31,60.32 C318.45,59.2 316.94,57.68 315.76,55.77 C314.58,53.86 313.73,51.63 313.2,49.1 C312.67,46.57 312.41,43.89 312.41,41.06 L312.41,17.38 L320.36,17.38 L320.36,40.8 C320.36,42.98 320.51,44.97 320.8,46.76 C321.09,48.56 321.59,50.1 322.3,51.4 C323.01,52.7 325.94,54.72 329.72,54.72 C334.75,54.72 339.11,50.21 340.23,48.86 L340.23,17.39 L348.18,17.39 L348.18,61.84 L338.73,61.84 L338.73,57.04 C338.72,57.04 334.05,62 327.45,62 Z" id="Path"></path>
                <path d="M353.58,17.4 L359.86,17.4 L359.86,6.34 L368.38,6.34 L368.38,17.4 L381.48,17.4 L381.48,23.97 L368.38,23.97 L368.38,46.01 C368.38,47.27 368.47,48.45 368.67,49.56 C368.86,50.67 369.2,51.61 369.71,52.39 C370.22,53.17 370.91,53.78 371.79,54.23 C372.67,54.68 373.84,54.9 375.29,54.9 C377.94,54.9 380.34,54.51 382.48,53.73 L383.24,59.85 C382.23,60.27 380.8,60.64 378.93,60.97 C377.07,61.3 375.25,61.47 373.49,61.47 C371.03,61.47 368.95,61.09 367.24,60.34 C365.53,59.59 364.13,58.54 363.03,57.19 C361.92,55.84 361.12,54.24 360.62,52.38 C360.11,50.52 359.86,48.48 359.86,46.26 L359.86,23.95 L353.58,23.95 L353.58,17.4 Z" id="Path"></path>
                <path d="M454.71,60.61 L454.71,16.87 L462.21,16.87 L462.21,22.98 C463.78,20.77 465.67,19.05 467.88,17.83 C470.09,16.61 472.65,16 475.56,16 C478.18,16 480.42,16.55 482.28,17.66 C484.14,18.77 485.68,20.26 486.9,22.15 C488.12,24.04 489.01,26.24 489.56,28.74 C490.11,31.24 490.39,35.74 490.39,38.54 L490.39,60.62 L482.54,60.62 L482.54,38.8 C482.54,36.65 482.36,34.68 482.02,32.91 C481.67,31.14 481.12,29.61 480.36,28.33 C479.6,27.05 478.43,24.23 472.94,24.23 C467.45,24.23 465.46,28.56 464.41,29.9 L464.41,60.61 L454.71,60.61 L454.71,60.61 Z" id="Path"></path>
                <path d="M510.38,62.41 C509.27,62.41 508.08,62.35 506.85,62.23 C505.61,62.11 504.36,61.93 503.15,61.69 C501.92,61.45 500.72,61.17 499.59,60.84 C498.44,60.51 497.44,60.16 496.62,59.79 L495.93,59.48 L497.68,51.47 L498.7,51.89 C500.21,52.51 501.98,53.08 503.96,53.6 C505.89,54.1 508.08,54.36 510.47,54.36 C512.9,54.36 514.97,53.94 516.61,53.11 C518.08,52.36 518.77,51.26 518.77,49.62 C518.77,48.87 518.58,48.22 518.2,47.65 C517.78,47.02 517.23,46.46 516.54,45.97 C515.81,45.46 514.94,44.97 513.94,44.53 C512.89,44.07 511.8,43.61 510.66,43.14 C509.1,42.56 507.49,41.89 505.92,41.16 C504.3,40.41 502.79,39.49 501.44,38.43 C500.06,37.35 498.93,36.08 498.06,34.65 C497.16,33.17 496.7,31.4 496.7,29.37 C496.7,27.17 497.19,25.25 498.14,23.66 C499.08,22.1 500.33,20.79 501.86,19.79 C503.36,18.8 505.12,18.07 507.09,17.61 C511.23,16.65 515.81,16.75 519.99,17.7 C522.22,18.21 524.27,18.92 526.08,19.82 L526.73,20.15 L524.96,27.91 L523.92,27.43 C522.24,26.65 520.46,26.04 518.63,25.62 C514.88,24.76 510.72,24.71 508.16,25.94 C507.04,26.48 506.52,27.44 506.52,28.94 C506.52,29.59 506.7,30.13 507.07,30.57 C507.52,31.1 508.11,31.59 508.83,32.03 C509.6,32.5 510.46,32.93 511.38,33.32 C512.36,33.74 513.28,34.15 514.14,34.56 C514.89,34.89 516.06,35.38 517.62,36.02 C519.23,36.68 520.85,37.54 522.44,38.59 C524.06,39.66 525.49,41.01 526.7,42.6 C527.97,44.28 528.61,46.31 528.61,48.66 C528.61,50.79 528.13,52.73 527.18,54.43 C526.24,56.12 524.93,57.57 523.29,58.75 C521.67,59.91 519.74,60.82 517.54,61.46 C515.33,62.09 512.93,62.41 510.38,62.41 Z" id="Path"></path>
                <path d="M36.7,45.72 C36.7,48.2 36.19,50.48 35.18,52.56 C34.17,54.64 32.73,56.42 30.87,57.91 C29.01,59.39 26.78,60.54 24.18,61.35 C21.58,62.17 18.7,62.57 15.52,62.57 L0.11,62.57 L0.11,2.32 L17.02,2.32 C19.65,2.32 22.05,2.67 24.24,3.36 C26.43,4.05 28.3,5.05 29.86,6.34 C31.42,7.64 32.62,9.19 33.47,10.99 C34.32,12.8 34.74,14.78 34.74,16.95 C34.74,20.44 33.69,23.38 31.58,25.75 C29.47,28.13 26.78,29.92 23.49,31.12 C27.54,31.97 30.75,33.61 33.13,36.06 C35.51,38.52 36.7,41.74 36.7,45.72 Z M15.06,26.95 C16.69,26.95 18.21,26.73 19.62,26.28 C21.03,25.83 22.25,25.19 23.28,24.35 C24.31,23.51 25.11,22.5 25.69,21.33 C26.26,20.16 26.55,18.82 26.55,17.31 C26.55,14.52 25.65,12.42 23.86,11.02 C22.07,9.62 19.73,8.92 16.86,8.92 L8.96,8.92 L8.96,26.94 L15.06,26.94 L15.06,26.95 Z M29.5,45.44 C29.5,43.64 29.14,42.06 28.43,40.71 C27.72,39.36 26.76,38.25 25.54,37.38 C24.32,36.51 22.9,35.87 21.28,35.44 C19.66,35.02 17.93,34.81 16.11,34.81 L8.96,34.81 L8.96,55.98 L17.03,55.98 C20.83,55.98 23.86,55.1 26.12,53.32 C28.37,51.54 29.5,48.92 29.5,45.44 Z" id="Shape"></path>
                <path d="M82.39,17.94 L82.39,62.52 L72.13,62.52 L72.11,58.54 C70.98,59.61 69.72,60.55 68.32,61.36 C65.92,62.75 63.16,63.45 60.05,63.45 C57.24,63.45 54.86,62.86 52.9,61.68 C50.94,60.5 49.33,58.91 48.08,56.9 C46.83,54.89 45.93,52.55 45.37,49.89 C44.81,47.23 44.53,44.41 44.53,41.44 L44.53,17.94 L52.94,17.94 L52.94,41.16 C52.94,43.45 53.09,45.54 53.41,47.43 C53.72,49.32 55.67,54.61 60.85,54.61 C66.03,54.61 72.13,50.51 72.13,47.48 C72.13,45.1 72.13,17.95 72.13,17.95 L82.39,17.95 L82.39,17.94 Z" id="Path"></path>
                <path d="M93.03,6.15 C93.03,4.76 93.48,3.55 94.38,2.52 C95.28,1.49 96.49,0.98 98,0.98 C99.51,0.98 100.72,1.49 101.62,2.52 C102.52,3.55 102.97,4.76 102.97,6.15 C102.97,7.54 102.52,8.75 101.62,9.78 C100.72,10.81 99.51,11.32 98,11.32 C96.49,11.32 95.28,10.81 94.38,9.78 C93.48,8.75 93.03,7.54 93.03,6.15 Z M94.08,62.58 L94.08,24.84 L87.03,24.84 L87.03,17.18 L101.94,17.18 L101.94,62.58 L94.08,62.58 Z" id="Shape"></path>
                <path d="M120.39,61.87 C116.51,61.87 113.18,56.37 113.18,52.1 L113.18,0.97 L122.89,0.97 C122.89,0.97 122.89,44.78 122.89,46.1 C122.89,54.57 129.760014,54.57 129.760014,54.57 L129.760014,61.83 C129.77,61.84 124.28,61.87 120.39,61.87 Z" id="Path"></path>
                <path d="M149.14,63.45 C146.63,63.45 144.49,62.92 142.51,61.88 C140.53,60.83 138.82,59.34 137.36,57.42 C135.91,55.5 134.79,53.22 134,50.6 C133.21,47.98 132.82,45.09 132.82,41.94 C132.82,31.79 137.4,25.19 138.93,23.69 C140.86,21.8 143.1,20.35 145.69,19.36 C148.28,18.37 151.08,17.87 154.11,17.87 C155.8,17.87 157.29,17.97 158.6,18.18 C159.91,18.39 161.17,18.67 162.4,19.02 L162.4,0.97 L172.11,0.97 L172.11,62.57 L162.84,62.57 L162.84,60.52 C162.83,60.53 156.81,63.45 149.14,63.45 Z M152.76,54.44 C159.11,54.44 161.39,52.76 162.4,51.48 L162.4,27.14 C161.54,26.77 160.55,26.5 159.44,26.35 C158.33,26.19 157.16,26.11 155.95,26.11 C152.16,26.11 149.13,27.36 146.88,29.85 C144.63,32.34 143.5,35.93 143.5,40.59 C143.5,44.78 144.25,48.14 145.74,50.66 C147.23,53.18 149.57,54.44 152.76,54.44 Z" id="Shape"></path>
                <path d="M295.83,62 C291.95,62 288.62,56.5 288.62,52.23 L288.62,1.1 L298.33,1.1 C298.33,1.1 298.33,44.91 298.33,46.23 C298.33,54.7 305.200014,54.7 305.200014,54.7 L305.200014,61.96 C305.21,61.97 299.72,62 295.83,62 Z" id="Path"></path>
                <path d="M392.07,6.15 C392.07,4.76 392.52,3.55 393.42,2.52 C394.32,1.49 395.53,0.98 397.04,0.98 C398.55,0.98 399.76,1.49 400.66,2.52 C401.56,3.55 402.01,4.76 402.01,6.15 C402.01,7.54 401.56,8.75 400.66,9.78 C399.76,10.81 398.55,11.32 397.04,11.32 C395.53,11.32 394.32,10.81 393.42,9.78 C392.52,8.75 392.07,7.54 392.07,6.15 Z M393.12,62.58 L393.12,24.84 L386.07,24.84 L386.07,17.18 L400.98,17.18 L400.98,62.58 L393.12,62.58 Z" id="Shape"></path>
                <path d="M449.73,39.23 C449.73,42.32 449.29,45.24 448.4,47.97 C447.51,50.7 446.22,53.11 444.51,55.21 C442.8,57.3 440.7,58.96 438.22,60.17 C435.74,61.38 432.93,61.99 429.79,61.99 C426.59,61.99 423.77,61.38 421.32,60.17 C418.87,58.96 416.79,57.3 415.07,55.21 C413.36,53.12 412.06,50.71 411.18,47.97 C410.3,45.24 409.85,42.33 409.85,39.23 C409.85,36.14 410.29,33.22 411.18,30.49 C412.06,27.76 413.36,25.35 415.07,23.25 C416.78,21.15 418.86,19.5 421.32,18.29 C423.77,17.08 426.59,16.47 429.79,16.47 C432.93,16.47 435.74,17.08 438.22,18.29 C440.7,19.5 442.8,21.16 444.51,23.25 C446.22,25.34 447.52,27.75 448.4,30.49 C449.28,33.23 449.73,36.14 449.73,39.23 Z M440.54,39.23 C440.54,37.08 440.32,35.04 439.87,33.12 C439.42,31.2 438.76,29.53 437.9,28.1 C437.03,26.67 435.93,25.55 434.59,24.74 C433.25,23.93 431.69,23.52 429.9,23.52 C428.11,23.52 426.55,23.93 425.21,24.74 C423.87,25.55 422.76,26.67 421.9,28.1 C421.03,29.53 420.37,31.2 419.93,33.12 C419.48,35.04 419.26,37.08 419.26,39.23 C419.26,41.44 419.48,43.49 419.93,45.38 C420.38,47.27 421.03,48.93 421.9,50.35 C422.77,51.78 423.87,52.9 425.21,53.71 C426.55,54.53 428.11,54.93 429.9,54.93 C431.69,54.93 433.25,54.52 434.59,53.71 C435.93,52.9 437.04,51.78 437.9,50.35 C438.77,48.93 439.43,47.27 439.87,45.38 C440.32,43.49 440.54,41.44 440.54,39.23 Z" id="Shape"></path>
            </g>
            <g id="icone" transform="translate(539.230000, 0.000000)" fill-rule="nonzero">
                <g id="forma_3" transform="translate(85.810000, 84.630000)">
                    <polygon id="Path" fill="url(#linearGradient-1)" points="1.68 0 18.47 17.53 72.93 17.53"></polygon>
                    <polygon id="Path" fill="url(#linearGradient-2)" points="19.88 20.66 19.88 81.06 80.91 20.66"></polygon>
                    <polygon id="Path" fill="url(#linearGradient-3)" points="0 2.51 17.44 20.5 17.44 74.18"></polygon>
                </g>
                <g id="forma_2" transform="translate(0.000000, 65.260000)">
                    <polygon id="Path" fill="url(#linearGradient-4)" points="1.67 0 18.46 17.53 72.92 17.53"></polygon>
                    <polygon id="Path" fill="url(#linearGradient-5)" points="19.87 20.66 19.87 81.06 80.9 20.66"></polygon>
                    <polygon id="Path" fill="url(#linearGradient-6)" points="-5.68434189e-14 2.51 17.43 20.5 17.43 74.18"></polygon>
                </g>
                <g id="forma_1" transform="translate(63.740000, 0.000000)">
                    <polygon id="Path" fill="url(#linearGradient-7)" points="1.68 0 18.47 17.53 72.92 17.53"></polygon>
                    <polygon id="Path" fill="url(#linearGradient-8)" points="19.87 20.66 19.87 81.06 80.9 20.66"></polygon>
                    <polygon id="Path" fill="url(#linearGradient-9)" points="-5.68434189e-14 2.5 17.43 20.5 17.43 74.17"></polygon>
                </g>
            </g>
        </g>
    </g>
</svg>