<svg xmlns="http://www.w3.org/2000/svg" width="209" height="213" viewBox="0 0 209 213">
    <defs>
        <linearGradient id="a" x1="49.996%" x2="49.996%" y1=".012%" y2="99.991%">
            <stop offset="21.59%" stop-color="#FBC5A0"/>
            <stop offset="32.97%" stop-color="#FBC19D"/>
            <stop offset="43.73%" stop-color="#FAB695"/>
            <stop offset="54.26%" stop-color="#F8A387"/>
            <stop offset="64.63%" stop-color="#F68873"/>
            <stop offset="74.89%" stop-color="#F2655A"/>
            <stop offset="84.93%" stop-color="#EF3B3B"/>
            <stop offset="91.47%" stop-color="#EC1C24"/>
        </linearGradient>
        <linearGradient id="b" x1="49.994%" x2="49.994%" y1="100.002%" y2="-.003%">
            <stop offset="0%" stop-color="#68101B"/>
            <stop offset="2.81%" stop-color="#8E1F27"/>
            <stop offset="5.91%" stop-color="#B02C32"/>
            <stop offset="9.07%" stop-color="#CB373A"/>
            <stop offset="12.28%" stop-color="#DE3E40"/>
            <stop offset="15.56%" stop-color="#E94344"/>
            <stop offset="19.05%" stop-color="#ED4445"/>
            <stop offset="25.55%" stop-color="#E54143"/>
            <stop offset="35.67%" stop-color="#CF393E"/>
            <stop offset="48.07%" stop-color="#AB2C35"/>
            <stop offset="58.97%" stop-color="#861F2C"/>
            <stop offset="64.23%" stop-color="#891F2C"/>
            <stop offset="68.21%" stop-color="#931F2B"/>
            <stop offset="71.76%" stop-color="#A31E2A"/>
            <stop offset="75.07%" stop-color="#BA1D28"/>
            <stop offset="78.18%" stop-color="#D71D26"/>
            <stop offset="80%" stop-color="#EC1C24"/>
        </linearGradient>
        <linearGradient id="c" x1="50.001%" x2="50.001%" y1="99.994%" y2="-.006%">
            <stop offset="0%" stop-color="#68101B"/>
            <stop offset="1.94%" stop-color="#70131E"/>
            <stop offset="4.96%" stop-color="#861C24"/>
            <stop offset="8.68%" stop-color="#AA2A30"/>
            <stop offset="12.91%" stop-color="#DB3D3F"/>
            <stop offset="14.28%" stop-color="#ED4445"/>
            <stop offset="19.2%" stop-color="#E94244"/>
            <stop offset="24.52%" stop-color="#DC3E41"/>
            <stop offset="30.02%" stop-color="#C6363C"/>
            <stop offset="35.62%" stop-color="#A82B36"/>
            <stop offset="40.15%" stop-color="#8A202F"/>
            <stop offset="45.7%" stop-color="#8D202F"/>
            <stop offset="49.07%" stop-color="#95202E"/>
            <stop offset="51.85%" stop-color="#A31F2C"/>
            <stop offset="54.32%" stop-color="#B81E2A"/>
            <stop offset="56.55%" stop-color="#D21D27"/>
            <stop offset="58.3%" stop-color="#EC1C24"/>
            <stop offset="63.26%" stop-color="#EC2027"/>
            <stop offset="67.8%" stop-color="#ED2B2F"/>
            <stop offset="72.17%" stop-color="#EF3D3C"/>
            <stop offset="76.45%" stop-color="#F15850"/>
            <stop offset="80.65%" stop-color="#F47968"/>
            <stop offset="84.75%" stop-color="#F8A286"/>
            <stop offset="87.76%" stop-color="#FBC5A0"/>
        </linearGradient>
        <linearGradient id="d" x1="50.004%" x2="50.004%" y1=".018%" y2="99.997%">
            <stop offset="21.59%" stop-color="#FBC5A0"/>
            <stop offset="32.97%" stop-color="#FBC19D"/>
            <stop offset="43.73%" stop-color="#FAB695"/>
            <stop offset="54.26%" stop-color="#F8A387"/>
            <stop offset="64.63%" stop-color="#F68873"/>
            <stop offset="74.89%" stop-color="#F2655A"/>
            <stop offset="84.93%" stop-color="#EF3B3B"/>
            <stop offset="91.47%" stop-color="#EC1C24"/>
        </linearGradient>
        <linearGradient id="e" x1="50.003%" x2="50.003%" y1="100.003%" y2="-.002%">
            <stop offset="0%" stop-color="#68101B"/>
            <stop offset="2.81%" stop-color="#8E1F27"/>
            <stop offset="5.91%" stop-color="#B02C32"/>
            <stop offset="9.07%" stop-color="#CB373A"/>
            <stop offset="12.28%" stop-color="#DE3E40"/>
            <stop offset="15.56%" stop-color="#E94344"/>
            <stop offset="19.05%" stop-color="#ED4445"/>
            <stop offset="25.55%" stop-color="#E54143"/>
            <stop offset="35.67%" stop-color="#CF393E"/>
            <stop offset="48.07%" stop-color="#AB2C35"/>
            <stop offset="58.97%" stop-color="#861F2C"/>
            <stop offset="64.23%" stop-color="#891F2C"/>
            <stop offset="68.21%" stop-color="#931F2B"/>
            <stop offset="71.76%" stop-color="#A31E2A"/>
            <stop offset="75.07%" stop-color="#BA1D28"/>
            <stop offset="78.18%" stop-color="#D71D26"/>
            <stop offset="80%" stop-color="#EC1C24"/>
        </linearGradient>
        <linearGradient id="f" x1="50.003%" x2="50.003%" y1="99.995%" y2="-.004%">
            <stop offset="0%" stop-color="#68101B"/>
            <stop offset="1.94%" stop-color="#70131E"/>
            <stop offset="4.96%" stop-color="#861C24"/>
            <stop offset="8.68%" stop-color="#AA2A30"/>
            <stop offset="12.91%" stop-color="#DB3D3F"/>
            <stop offset="14.28%" stop-color="#ED4445"/>
            <stop offset="19.2%" stop-color="#E94244"/>
            <stop offset="24.52%" stop-color="#DC3E41"/>
            <stop offset="30.02%" stop-color="#C6363C"/>
            <stop offset="35.62%" stop-color="#A82B36"/>
            <stop offset="40.15%" stop-color="#8A202F"/>
            <stop offset="45.7%" stop-color="#8D202F"/>
            <stop offset="49.07%" stop-color="#95202E"/>
            <stop offset="51.85%" stop-color="#A31F2C"/>
            <stop offset="54.32%" stop-color="#B81E2A"/>
            <stop offset="56.55%" stop-color="#D21D27"/>
            <stop offset="58.3%" stop-color="#EC1C24"/>
            <stop offset="63.26%" stop-color="#EC2027"/>
            <stop offset="67.8%" stop-color="#ED2B2F"/>
            <stop offset="72.17%" stop-color="#EF3D3C"/>
            <stop offset="76.45%" stop-color="#F15850"/>
            <stop offset="80.65%" stop-color="#F47968"/>
            <stop offset="84.75%" stop-color="#F8A286"/>
            <stop offset="87.76%" stop-color="#FBC5A0"/>
        </linearGradient>
        <linearGradient id="g" x1="49.998%" x2="49.998%" y1=".001%" y2="99.98%">
            <stop offset="21.59%" stop-color="#FBC5A0"/>
            <stop offset="32.97%" stop-color="#FBC19D"/>
            <stop offset="43.73%" stop-color="#FAB695"/>
            <stop offset="54.26%" stop-color="#F8A387"/>
            <stop offset="64.63%" stop-color="#F68873"/>
            <stop offset="74.89%" stop-color="#F2655A"/>
            <stop offset="84.93%" stop-color="#EF3B3B"/>
            <stop offset="91.47%" stop-color="#EC1C24"/>
        </linearGradient>
        <linearGradient id="h" x1="50.005%" x2="50.005%" y1="99.999%" y2="-.006%">
            <stop offset="0%" stop-color="#68101B"/>
            <stop offset="2.81%" stop-color="#8E1F27"/>
            <stop offset="5.91%" stop-color="#B02C32"/>
            <stop offset="9.07%" stop-color="#CB373A"/>
            <stop offset="12.28%" stop-color="#DE3E40"/>
            <stop offset="15.56%" stop-color="#E94344"/>
            <stop offset="19.05%" stop-color="#ED4445"/>
            <stop offset="25.55%" stop-color="#E54143"/>
            <stop offset="35.67%" stop-color="#CF393E"/>
            <stop offset="48.07%" stop-color="#AB2C35"/>
            <stop offset="58.97%" stop-color="#861F2C"/>
            <stop offset="64.23%" stop-color="#891F2C"/>
            <stop offset="68.21%" stop-color="#931F2B"/>
            <stop offset="71.76%" stop-color="#A31E2A"/>
            <stop offset="75.07%" stop-color="#BA1D28"/>
            <stop offset="78.18%" stop-color="#D71D26"/>
            <stop offset="80%" stop-color="#EC1C24"/>
        </linearGradient>
        <linearGradient id="i" x1="50.011%" x2="50.011%" y1="100.005%" y2=".006%">
            <stop offset="0%" stop-color="#68101B"/>
            <stop offset="1.94%" stop-color="#70131E"/>
            <stop offset="4.96%" stop-color="#861C24"/>
            <stop offset="8.68%" stop-color="#AA2A30"/>
            <stop offset="12.91%" stop-color="#DB3D3F"/>
            <stop offset="14.28%" stop-color="#ED4445"/>
            <stop offset="19.2%" stop-color="#E94244"/>
            <stop offset="24.52%" stop-color="#DC3E41"/>
            <stop offset="30.02%" stop-color="#C6363C"/>
            <stop offset="35.62%" stop-color="#A82B36"/>
            <stop offset="40.15%" stop-color="#8A202F"/>
            <stop offset="45.7%" stop-color="#8D202F"/>
            <stop offset="49.07%" stop-color="#95202E"/>
            <stop offset="51.85%" stop-color="#A31F2C"/>
            <stop offset="54.32%" stop-color="#B81E2A"/>
            <stop offset="56.55%" stop-color="#D21D27"/>
            <stop offset="58.3%" stop-color="#EC1C24"/>
            <stop offset="63.26%" stop-color="#EC2027"/>
            <stop offset="67.8%" stop-color="#ED2B2F"/>
            <stop offset="72.17%" stop-color="#EF3D3C"/>
            <stop offset="76.45%" stop-color="#F15850"/>
            <stop offset="80.65%" stop-color="#F47968"/>
            <stop offset="84.75%" stop-color="#F8A286"/>
            <stop offset="87.76%" stop-color="#FBC5A0"/>
        </linearGradient>
    </defs>
    <g fill="none" fill-rule="evenodd">
        <g fill-rule="nonzero">
            <path fill="url(#a)" d="M1.65 0l16.496 17.212H71.65z" transform="translate(102.961 82.77)"/>
            <path fill="url(#b)" d="M19.531 20.286V79.59l59.958-59.305z" transform="translate(102.961 82.77)"/>
            <path fill="url(#c)" d="M0 2.465l17.134 17.664v52.707z" transform="translate(102.961 82.77)"/>
        </g>
        <g fill-rule="nonzero">
            <path fill="url(#d)" d="M1.64 0l16.496 17.212H71.64z" transform="translate(18.444 64.133)"/>
            <path fill="url(#e)" d="M19.521 20.286V79.59L79.48 20.286z" transform="translate(18.444 64.133)"/>
            <path fill="url(#f)" d="M0 2.465l17.124 17.664v52.707z" transform="translate(18.444 64.133)"/>
        </g>
        <g fill-rule="nonzero">
            <path fill="url(#g)" d="M1.65 0l16.496 17.212H71.64z" transform="translate(81.009)"/>
            <path fill="url(#h)" d="M19.521 20.286V79.59L79.48 20.286z" transform="translate(81.009)"/>
            <path fill="url(#i)" d="M0 2.455l17.124 17.674v52.697z" transform="translate(81.009)"/>
        </g>
        <text fill="#000" font-family="Helvetica-Bold, Helvetica" font-size="10.133" font-weight="bold" transform="translate(.333)">
            <tspan x="8.422" y="210">Soluções em Tecnologia da Informação</tspan>
        </text>
        <path fill="#000" fill-rule="nonzero" d="M158.55 178.891v17.776h-2.977V181.89h-2.67v-2.999h5.647zm11.092-.313c1.253 0 2.375.242 3.364.723.99.48 1.828 1.14 2.51 1.971a8.677 8.677 0 0 1 1.553 2.877c.351 1.089.53 2.245.53 3.473 0 1.228-.175 2.388-.53 3.473a8.83 8.83 0 0 1-1.552 2.877 7.392 7.392 0 0 1-2.51 1.971c-.99.481-2.112.724-3.365.724-1.277 0-2.402-.243-3.38-.724a7.49 7.49 0 0 1-2.495-1.97 8.677 8.677 0 0 1-1.552-2.878 11.205 11.205 0 0 1-.53-3.473c0-1.228.175-2.388.53-3.473a8.756 8.756 0 0 1 1.552-2.877 7.362 7.362 0 0 1 2.495-1.971c.978-.48 2.103-.723 3.38-.723zm-78.806-6.188c1.066.262 2.014.612 2.812 1.037l.248.132-.755 3.275-.421-.223a11.558 11.558 0 0 0-2.43-.942 10.461 10.461 0 0 0-2.753-.37c-2.548 0-3.786.946-3.786 2.89 0 .437.059.819.18 1.133.118.31.315.604.586.878.283.286.673.568 1.156.839a53.39 53.39 0 0 0 1.856.981c.732.37 1.514.771 2.336 1.197.845.437 1.632.97 2.336 1.574a8.362 8.362 0 0 1 1.793 2.158c.487.842.735 1.824.735 2.929 0 1.053-.228 2.011-.68 2.846a6.661 6.661 0 0 1-1.817 2.13c-.75.58-1.643 1.03-2.654 1.344-.999.314-2.092.469-3.24.469-1.113 0-2.277-.12-3.449-.354a13.673 13.673 0 0 1-3.26-1.07l-.267-.127.795-3.255.4.187c.823.382 1.739.7 2.73.946.983.246 1.985.37 2.984.37 1.404 0 2.548-.298 3.397-.89.818-.569 1.215-1.372 1.215-2.453 0-.604-.117-1.12-.346-1.538a4.169 4.169 0 0 0-.994-1.18 7.787 7.787 0 0 0-1.526-.978c-.606-.298-1.247-.608-1.93-.934a39.42 39.42 0 0 1-2.27-1.173 9.948 9.948 0 0 1-1.977-1.443 6.727 6.727 0 0 1-1.396-1.868c-.358-.707-.539-1.538-.539-2.472 0-1.045.189-1.983.566-2.794a5.595 5.595 0 0 1 1.597-2.039c.672-.536 1.49-.942 2.426-1.208 1.856-.529 4.227-.52 6.342-.004zm12.949 6.188c1.253 0 2.374.242 3.364.723.99.48 1.828 1.14 2.51 1.971a8.677 8.677 0 0 1 1.553 2.877c.355 1.085.53 2.241.53 3.473 0 1.228-.175 2.388-.53 3.473a8.83 8.83 0 0 1-1.553 2.877 7.392 7.392 0 0 1-2.51 1.971c-.99.481-2.111.724-3.364.724-1.278 0-2.403-.243-3.38-.724a7.49 7.49 0 0 1-2.495-1.97 8.677 8.677 0 0 1-1.552-2.878 11.205 11.205 0 0 1-.531-3.473c0-1.228.175-2.388.53-3.473a8.756 8.756 0 0 1 1.553-2.877 7.41 7.41 0 0 1 2.494-1.971c.978-.48 2.103-.723 3.38-.723zm14.01-6.03v17.873c0 3.355 2.728 3.355 2.728 3.355v2.875c.004.004-2.176.016-3.722.016-1.54 0-2.863-2.179-2.863-3.87v-20.249h3.856zm8.644 6.578v9.207c0 .857.06 1.639.175 2.343.116.707.315 1.313.599 1.824.283.51 1.452 1.305 2.96 1.305 2.006 0 3.745-1.773 4.192-2.304V179.13h3.171v17.474h-3.77v-1.887l-.024.025c-.231.226-2.018 1.925-4.475 1.925-.993 0-2.11-.22-2.848-.66a5.336 5.336 0 0 1-1.815-1.79c-.471-.75-.81-1.627-1.021-2.622a15.177 15.177 0 0 1-.316-3.16v-9.31h3.172zm19.044-4.385v4.398h5.09v2.613h-5.09v8.766c0 .501.035.97.112 1.412.074.441.206.815.404 1.125.199.31.467.553.809.732.342.18.796.267 1.36.267 1.03 0 1.962-.156 2.794-.466l.295 2.434c-.393.167-.948.314-1.675.446-.723.13-1.43.199-2.114.199-.956 0-1.764-.152-2.428-.45a4.304 4.304 0 0 1-1.636-1.253c-.432-.537-.742-1.173-.937-1.913a9.393 9.393 0 0 1-.295-2.434v-8.873h-2.44v-2.605h2.44v-4.398h3.31zm42.102 4.385c1.047 0 1.943.216 2.687.652a5.536 5.536 0 0 1 1.848 1.766c.488.743.844 1.607 1.063 2.59.22.983.332 2.752.332 3.853v8.68h-3.139v-8.578c0-.845-.072-1.62-.208-2.316-.14-.695-.36-1.297-.664-1.8-.304-.503-.772-1.612-2.967-1.612-2.196 0-2.992 1.702-3.412 2.23v12.072h-3.879v-17.195h3v2.402c.628-.869 1.383-1.545 2.267-2.025.884-.48 1.908-.72 3.072-.72zM68.386 172v24.32h-3.625v-.81l-.028.013c-.273.13-2.518 1.144-5.33 1.144-.982 0-1.82-.21-2.594-.62-.774-.415-1.443-1.003-2.014-1.761-.567-.758-1.005-1.658-1.314-2.693-.31-1.034-.462-2.175-.462-3.418 0-4.008 1.792-6.613 2.39-7.205a7.617 7.617 0 0 1 2.644-1.71c1.013-.39 2.108-.588 3.293-.588.661 0 1.244.04 1.756.122.513.083 1.005.194 1.486.332V172h3.798zm136.618 6.881c.861.203 1.653.486 2.352.844l.251.13-.683 3.088-.402-.191a10.167 10.167 0 0 0-2.043-.72c-1.449-.342-3.056-.362-4.045.127-.432.215-.633.597-.633 1.193 0 .259.07.474.212.649.174.21.402.406.68.58.298.188.63.359.985.514.379.167.734.33 1.066.493.29.131.742.326 1.344.58.622.263 1.248.605 1.862 1.023a6.814 6.814 0 0 1 1.646 1.595c.49.669.737 1.476.737 2.41 0 .848-.185 1.62-.552 2.296a5.216 5.216 0 0 1-1.503 1.719c-.625.461-1.37.823-2.22 1.078-.854.25-1.781.378-2.766.378-.429 0-.888-.024-1.363-.072-.48-.048-.962-.12-1.43-.215a15.199 15.199 0 0 1-1.375-.338 8.453 8.453 0 0 1-1.147-.418l-.266-.123.676-3.186.394.167c.583.246 1.266.473 2.031.68.746.199 1.592.302 2.515.302.938 0 1.738-.167 2.371-.497.568-.298.835-.736.835-1.388 0-.299-.074-.557-.22-.784a2.532 2.532 0 0 0-.642-.668 5.873 5.873 0 0 0-1.004-.573 62.066 62.066 0 0 0-1.267-.553 24.856 24.856 0 0 1-1.83-.788 8.73 8.73 0 0 1-1.731-1.086 5.551 5.551 0 0 1-1.306-1.503c-.347-.589-.525-1.293-.525-2.1 0-.876.19-1.64.556-2.272a4.7 4.7 0 0 1 1.437-1.54 6.116 6.116 0 0 1 2.02-.867c1.6-.381 3.368-.342 4.983.036zm-156.36-6.333v17.873c0 3.355 2.729 3.355 2.729 3.355v2.875c.004.004-2.177.016-3.722.016-1.541 0-2.864-2.179-2.864-3.87v-20.249h3.857zm-41.716.548c1.025 0 1.961.137 2.815.407.854.27 1.584.661 2.192 1.166a5.27 5.27 0 0 1 1.408 1.82c.331.707.495 1.482.495 2.33 0 1.366-.41 2.516-1.232 3.443-.823.931-1.872 1.632-3.155 2.101 1.58.333 2.831.974 3.76 1.933.927.962 1.391 2.222 1.391 3.779a6.06 6.06 0 0 1-.592 2.676 6.035 6.035 0 0 1-1.681 2.093c-.725.578-1.595 1.028-2.609 1.345-1.014.321-2.137.478-3.377.478H.333v-23.57h6.595zm33.627 5.795v17.776H37.58V181.89h-2.67v-2.999h5.646zm-19.368-.313v9.229c0 .91.059 1.74.184 2.492.121.751.884 2.854 2.912 2.854 2.027 0 4.415-1.63 4.415-2.834v-11.737h4.015v17.715h-4.015l-.008-1.582a7.91 7.91 0 0 1-1.484 1.12c-.939.553-2.02.832-3.236.832-1.1 0-2.032-.235-2.799-.704a5.642 5.642 0 0 1-1.886-1.9c-.49-.799-.842-1.729-1.06-2.786a16.53 16.53 0 0 1-.33-3.359v-9.34h3.292zm-14.614 7.229H3.785v8.281h3.147c1.482 0 2.663-.344 3.545-1.04.877-.696 1.318-1.721 1.318-3.083 0-.704-.14-1.322-.418-1.85a3.67 3.67 0 0 0-1.127-1.303 5.06 5.06 0 0 0-1.66-.759 7.998 7.998 0 0 0-2.017-.246zm163.113-4.428c-.714 0-1.337.163-1.872.485a3.857 3.857 0 0 0-1.32 1.335c-.348.569-.611 1.232-.787 1.995a10.58 10.58 0 0 0-.267 2.428c0 .878.087 1.693.267 2.444.18.751.439 1.41.786 1.975a3.891 3.891 0 0 0 1.321 1.335c.535.326 1.158.485 1.872.485.714 0 1.337-.163 1.872-.485a3.857 3.857 0 0 0 1.32-1.335c.348-.564.611-1.224.787-1.975.18-.751.267-1.566.267-2.444 0-.854-.088-1.665-.267-2.428-.18-.763-.443-1.426-.786-1.995a3.891 3.891 0 0 0-1.321-1.335c-.535-.322-1.158-.485-1.872-.485zm-65.854 0c-.714 0-1.337.163-1.871.485a3.857 3.857 0 0 0-1.321 1.335c-.347.569-.61 1.232-.786 1.995a10.58 10.58 0 0 0-.268 2.428c0 .878.088 1.693.268 2.444.18.751.439 1.41.786 1.975a3.891 3.891 0 0 0 1.32 1.335c.535.326 1.158.485 1.872.485.715 0 1.337-.163 1.872-.485a3.857 3.857 0 0 0 1.321-1.335c.347-.564.61-1.224.786-1.975.18-.751.268-1.566.268-2.444 0-.854-.088-1.665-.268-2.428-.18-.763-.443-1.426-.786-1.995a3.891 3.891 0 0 0-1.32-1.335c-.536-.322-1.158-.485-1.873-.485zm-41.766.546c-1.483 0-2.668.494-3.548 1.477-.88.983-1.322 2.4-1.322 4.24 0 1.654.294 2.98.877 3.975.582.995 1.497 1.492 2.745 1.492 2.484 0 3.375-.663 3.77-1.168v-9.61a4.396 4.396 0 0 0-1.157-.311 9.504 9.504 0 0 0-1.365-.095zm-55.2-6.247H3.784v7.05h2.378v.004c.636 0 1.229-.086 1.779-.262a4.292 4.292 0 0 0 1.427-.755 3.53 3.53 0 0 0 .94-1.182c.222-.458.335-.982.335-1.573 0-1.091-.35-1.913-1.049-2.46-.698-.548-1.61-.822-2.73-.822zm32.197-3.13c.572 0 1.03.2 1.371.603.341.403.511.877.511 1.421 0 .545-.17 1.018-.51 1.422-.342.403-.8.603-1.372.603-.572 0-1.03-.2-1.37-.603a2.133 2.133 0 0 1-.512-1.422c0-.544.17-1.018.511-1.42.341-.404.8-.604 1.371-.604zm117.995 0c.572 0 1.03.2 1.37.603.342.403.512.877.512 1.421 0 .545-.17 1.018-.511 1.422-.34.403-.8.603-1.371.603-.572 0-1.03-.2-1.371-.603a2.133 2.133 0 0 1-.511-1.422c0-.544.17-1.018.51-1.42.342-.404.8-.604 1.372-.604z"/>
    </g>
</svg>
