<svg xmlns="http://www.w3.org/2000/svg" width="25" height="25" viewBox="0 0 25 25">
    <g fill="none" fill-rule="evenodd" stroke="#E12537" stroke-width="1.333">
        <path stroke-linejoin="round" d="M22.346 2.986a2.667 2.667 0 0 1 0 3.771L11.975 17.128l-4.815 1.14 1.044-4.911 10.37-10.37a2.667 2.667 0 0 1 3.772 0z"/>
        <path stroke-linecap="square" d="M18.337 3.692l3.368 3.368M8.438 13.591l3.209 3.21"/>
        <path stroke-linecap="round" stroke-linejoin="round" d="M7.826 4.069H3A2.667 2.667 0 0 0 .333 6.736V21.53A2.667 2.667 0 0 0 3 24.198h16.194a2.667 2.667 0 0 0 2.666-2.667V16.66"/>
    </g>
</svg>
