<svg xmlns="http://www.w3.org/2000/svg" width="94" height="95" viewBox="0 0 94 95">
    <g fill="none" fill-rule="evenodd" stroke="#FFF" stroke-linejoin="round" stroke-width="2.667">
        <path d="M40.534 28.764c.624-2.123 2.026-3.185 4.205-3.185 2.316 0 3.83 1.338 4.541 4.013v20.651-8.891c.26-2.422 1.563-3.633 3.909-3.633s3.765 1.211 4.256 3.633v8.891-4.357c.616-2.74 2.04-4.111 4.273-4.111 2.233 0 3.546 1.37 3.939 4.111v4.136c.636-2.757 2.094-4.136 4.375-4.136 2.25 0 3.478 1.343 3.68 4.028.006.067.008.134.008.2v17.84c0 6.628-5.372 12-12 12H49.414a9.333 9.333 0 0 1-6.284-2.432C34.752 69.894 27.44 62.717 21.197 55.99c-1.606-2.337 2.179-5.969 5.73-5.035.69.147 5.19 3.358 13.499 9.633V29.516c0-.254.036-.508.108-.752z"/>
        <path stroke-linecap="round" d="M34.195 31.13c-2.888-4.476-1.4-16.513 11.044-16.513S58.824 26.75 55.895 31.129"/>
    </g>
</svg>
